<svg width="72" height="15" fill="none" xmlns="http://www.w3.org/2000/svg"><path fill-rule="evenodd" clip-rule="evenodd" d="M9.057 5.94 7.44.611 5.82 5.941H.336l4.437 3.45-1.647 5.426 4.313-3.354 4.312 3.354-1.647-5.427 4.438-3.45H9.057ZM23.263 5.94 21.645.611l-1.619 5.33h-5.484l4.437 3.45-1.647 5.426 4.313-3.354 4.312 3.354L24.31 9.39l4.438-3.45h-5.485ZM37.47 5.94 35.85.611l-1.618 5.33h-5.484l4.437 3.45-1.647 5.426 4.313-3.354 4.312 3.354-1.647-5.427 4.438-3.45h-5.485ZM51.675 5.94 50.057.611l-1.619 5.33h-5.484l4.437 3.45-1.647 5.426 4.313-3.354 4.312 3.354-1.647-5.427 4.438-3.45h-5.485ZM65.881 5.94 64.263.611l-1.619 5.33H57.16l4.437 3.45-1.647 5.426 4.313-3.354 4.312 3.354-1.647-5.427 4.438-3.45H65.88Z" fill="#FCA120"/></svg>