<svg width="72" height="15" fill="none" xmlns="http://www.w3.org/2000/svg"><path fill-rule="evenodd" clip-rule="evenodd" d="M8.998 5.346 7.375 0 5.752 5.346H.25l4.451 3.46L3.05 14.25l4.326-3.364 4.326 3.364-1.652-5.443L14.5 5.346H8.998ZM23.249 5.346 21.625 0l-1.623 5.346H14.5l4.451 3.46L17.3 14.25l4.326-3.364 4.326 3.364-1.652-5.443 4.451-3.461H23.25Z" fill="#FCA120"/><path fill-rule="evenodd" clip-rule="evenodd" d="M37.498 5.346 35.875 0 34.25 5.346H28.75l4.45 3.46-1.651 5.444 4.326-3.364L40.2 14.25l-1.652-5.443 4.45-3.461h-5.5ZM51.748 5.346 50.126 0l-1.623 5.346H43l4.451 3.46L45.8 14.25l4.326-3.364 4.326 3.364-1.652-5.443 4.451-3.461h-5.502Z" fill="#FCA120"/><path fill-rule="evenodd" clip-rule="evenodd" d="M65.998 5.346 64.375 0 62.75 5.346H57.25l4.451 3.46-1.652 5.444 4.326-3.364L68.7 14.25l-1.652-5.443 4.45-3.461H66Z" fill="#FCA120"/></svg>