<svg width="95" height="19" fill="none" xmlns="http://www.w3.org/2000/svg"><path fill-rule="evenodd" clip-rule="evenodd" d="M11.665 7.128 9.5 0 7.335 7.128H0l5.935 4.614L3.732 19 9.5 14.515 15.268 19l-2.203-7.258L19 7.128h-7.335ZM30.665 7.128 28.5 0l-2.165 7.128H19l5.935 4.614L22.732 19l5.768-4.485L34.268 19l-2.203-7.258L38 7.128h-7.335ZM49.665 7.128 47.5 0l-2.165 7.128H38l5.935 4.614L41.732 19l5.768-4.485L53.268 19l-2.203-7.258L57 7.128h-7.335ZM68.665 7.128 66.5 0l-2.165 7.128H57l5.935 4.614L60.732 19l5.768-4.485L72.268 19l-2.203-7.258L76 7.128h-7.335ZM87.665 7.128 85.5 0l-2.165 7.128H76l5.935 4.614L79.732 19l5.768-4.485L91.268 19l-2.203-7.258L95 7.128h-7.335Z" fill="#FCA120"/></svg>