<svg width="12" height="12" fill="none" xmlns="http://www.w3.org/2000/svg"><g clip-path="url('#clip0_3_2692')" fill-rule="evenodd" clip-rule="evenodd" fill="#000"><path d="M.667.444a.676.676 0 0 1 .666.667v9.778a.675.675 0 0 1-.666.666A.675.675 0 0 1 0 10.89V1.11A.676.676 0 0 1 .667.444ZM4.222.444a.676.676 0 0 1 .667.667v9.778a.675.675 0 0 1-.667.666.675.675 0 0 1-.666-.666V1.11a.676.676 0 0 1 .666-.667ZM7.778.444a.676.676 0 0 1 .667.667v9.778a.675.675 0 0 1-.667.666.675.675 0 0 1-.667-.666V1.11a.676.676 0 0 1 .667-.667ZM11.333.444a.675.675 0 0 1 .667.667v9.778a.675.675 0 0 1-.667.666.675.675 0 0 1-.667-.666V1.11a.676.676 0 0 1 .667-.667Z"/></g><defs><clipPath id="clip0_3_2692"><path fill="#fff" d="M0 0h12v12H0z"/></clipPath></defs></svg>