<svg width="12" height="12" fill="none" xmlns="http://www.w3.org/2000/svg"><g clip-path="url('#clip0_3_2683')" fill-rule="evenodd" clip-rule="evenodd" fill="#000"><path d="M2.16 0a.73.73 0 0 1 .72.72v10.56a.73.73 0 0 1-.72.72.73.73 0 0 1-.72-.72V.72A.73.73 0 0 1 2.16 0ZM6 0a.73.73 0 0 1 .72.72v10.56A.73.73 0 0 1 6 12a.73.73 0 0 1-.72-.72V.72A.73.73 0 0 1 6 0ZM9.84 0a.73.73 0 0 1 .72.72v10.56a.73.73 0 0 1-.72.72.73.73 0 0 1-.72-.72V.72A.73.73 0 0 1 9.84 0Z"/></g><defs><clipPath id="clip0_3_2683"><path fill="#fff" d="M0 0h12v12H0z"/></clipPath></defs></svg>