<svg width="12" height="12" fill="none" xmlns="http://www.w3.org/2000/svg"><g clip-path="url('#clip0_3_2702')" fill-rule="evenodd" clip-rule="evenodd" fill="#000"><path d="M.514 1.714a.521.521 0 0 1 .515.515V9.77a.521.521 0 0 1-.515.515A.521.521 0 0 1 0 9.772V2.228a.521.521 0 0 1 .514-.515ZM3.257 1.714a.521.521 0 0 1 .514.515V9.77a.521.521 0 0 1-.514.515.521.521 0 0 1-.514-.514V2.228a.521.521 0 0 1 .514-.515ZM6 1.714a.521.521 0 0 1 .514.515V9.77a.521.521 0 0 1-.514.515.521.521 0 0 1-.514-.514V2.228A.521.521 0 0 1 6 1.714ZM8.743 1.714a.521.521 0 0 1 .514.515V9.77a.521.521 0 0 1-.514.515.521.521 0 0 1-.514-.514V2.228a.521.521 0 0 1 .514-.515ZM11.486 1.714A.521.521 0 0 1 12 2.23V9.77a.522.522 0 0 1-.514.515.521.521 0 0 1-.515-.514V2.228a.521.521 0 0 1 .514-.515Z"/></g><defs><clipPath id="clip0_3_2702"><path fill="#fff" d="M0 0h12v12H0z"/></clipPath></defs></svg>