<svg width="12" height="12" fill="none" xmlns="http://www.w3.org/2000/svg"><g clip-path="url('#clip0_3_2666')" fill-rule="evenodd" clip-rule="evenodd" fill="#000"><path d="M12 2.16a.73.73 0 0 1-.72.72H.72A.73.73 0 0 1 0 2.16a.73.73 0 0 1 .72-.72h10.56a.73.73 0 0 1 .72.72ZM12 6a.73.73 0 0 1-.72.72H.72A.73.73 0 0 1 0 6a.73.73 0 0 1 .72-.72h10.56A.73.73 0 0 1 12 6ZM12 9.84a.73.73 0 0 1-.72.72H.72A.73.73 0 0 1 0 9.84a.73.73 0 0 1 .72-.72h10.56a.73.73 0 0 1 .72.72Z"/></g><defs><clipPath id="clip0_3_2666"><path fill="#fff" d="M0 0h12v12H0z"/></clipPath></defs></svg>