<svg width="19" height="18" fill="none" xmlns="http://www.w3.org/2000/svg"><path d="m17.837 6.066-5.073-.74L10.497.73c-.407-.82-1.584-.83-1.993 0L6.236 5.326l-5.073.74C.253 6.198-.11 7.319.55 7.962l3.67 3.576-.868 5.052c-.156.913.805 1.597 1.61 1.17l4.54-2.385 4.537 2.385c.806.424 1.768-.257 1.611-1.17l-.868-5.052 3.67-3.576c.66-.643.296-1.764-.614-1.896Zm-4.844 4.889.823 4.805L9.5 13.493 5.184 15.76l.823-4.805-3.493-3.403 4.826-.701L9.5 2.476l2.16 4.375 4.826.701-3.493 3.403Z" fill="#000"/></svg>