<svg width="18" height="17" fill="none" xmlns="http://www.w3.org/2000/svg"><path d="M16.922 6.269 15.34 1.525A1.496 1.496 0 0 0 13.919.5H4.08C3.434.5 2.862.912 2.66 1.525L1.08 6.269c-.05.153-.079.312-.079.475V15a1.5 1.5 0 0 0 1.5 1.5h13A1.5 1.5 0 0 0 17 15V6.744c0-.163-.025-.322-.078-.475ZM2 6.744c0-.053.01-.106.025-.16l1.581-4.743a.501.501 0 0 1 .475-.341H8.5v5.25H2v-.006ZM16 15c0 .275-.225.5-.5.5h-13A.501.501 0 0 1 2 15V7.75h14V15Zm0-8.25H9.5V1.5h4.419c.215 0 .406.137.475.34l1.581 4.744c.016.05.025.104.025.16v.006Z" fill="#000" stroke="#000" stroke-width=".031"/></svg>