<svg width="18" height="21" fill="none" xmlns="http://www.w3.org/2000/svg"><path d="M14.18 13c1.042 0 1.927.365 2.656 1.094.73.729 1.094 1.614 1.094 2.656s-.364 1.927-1.094 2.656c-.729.73-1.614 1.094-2.656 1.094-1.041 0-1.927-.365-2.656-1.094-.73-.729-1.094-1.614-1.094-2.656 0-.39.052-.768.156-1.133l-3.828-2.383A3.664 3.664 0 0 1 4.18 14.25c-1.041 0-1.927-.365-2.656-1.094C.794 12.427.43 11.542.43 10.5s.365-1.927 1.094-2.656c.73-.73 1.615-1.094 2.656-1.094.99 0 1.85.339 2.578 1.016l3.828-2.383a4.106 4.106 0 0 1-.156-1.133c0-1.042.365-1.927 1.094-2.656C12.254.864 13.139.5 14.18.5c1.042 0 1.927.365 2.656 1.094.73.729 1.094 1.614 1.094 2.656s-.364 1.927-1.094 2.656C16.107 7.636 15.222 8 14.18 8c-.99 0-1.849-.339-2.578-1.016L7.774 9.367c.234.755.234 1.51 0 2.266l3.828 2.383A3.664 3.664 0 0 1 14.18 13Zm1.328-10.078a1.808 1.808 0 0 0-1.328-.547c-.52 0-.963.182-1.328.547a1.808 1.808 0 0 0-.547 1.328c0 .52.183.964.547 1.328.365.365.807.547 1.328.547s.964-.182 1.328-.547c.365-.364.547-.807.547-1.328 0-.52-.182-.964-.547-1.328ZM2.852 11.828c.365.365.807.547 1.328.547s.964-.182 1.328-.547c.365-.364.547-.807.547-1.328 0-.52-.182-.964-.547-1.328a1.808 1.808 0 0 0-1.328-.547c-.52 0-.963.182-1.328.547a1.808 1.808 0 0 0-.547 1.328c0 .52.182.963.547 1.328Zm10 6.25c.365.365.807.547 1.328.547s.964-.182 1.328-.547c.365-.364.547-.807.547-1.328 0-.52-.182-.963-.547-1.328a1.808 1.808 0 0 0-1.328-.547c-.52 0-.963.182-1.328.547a1.808 1.808 0 0 0-.547 1.328c0 .52.183.963.547 1.328Z" fill="#000"/></svg>