<svg width="20" height="20" fill="none" xmlns="http://www.w3.org/2000/svg"><path d="m18.877 17.485-4.268-4.268a.417.417 0 0 0-.299-.123h-.464A7.311 7.311 0 0 0 8.312 1 7.311 7.311 0 0 0 1 8.312a7.311 7.311 0 0 0 12.094 5.534v.464c0 .113.046.218.123.299l4.268 4.268a.422.422 0 0 0 .597 0l.795-.795a.422.422 0 0 0 0-.597ZM8.313 13.938a5.623 5.623 0 0 1-5.626-5.626 5.623 5.623 0 0 1 5.626-5.624 5.623 5.623 0 0 1 5.624 5.624 5.623 5.623 0 0 1-5.624 5.626Z" fill="#484848" stroke="#484848" stroke-width=".035"/></svg>