<svg width="18" height="22" fill="none" xmlns="http://www.w3.org/2000/svg"><path d="M12.5 12.875c-1.121 0-1.66.625-3.5.625s-2.375-.625-3.5-.625a5.251 5.251 0 0 0-5.25 5.25v1C.25 20.16 1.09 21 2.125 21h13.75c1.035 0 1.875-.84 1.875-1.875v-1a5.251 5.251 0 0 0-5.25-5.25Zm3.375 6.25H2.125v-1A3.38 3.38 0 0 1 5.5 14.75c.57 0 1.496.625 3.5.625 2.02 0 2.926-.625 3.5-.625a3.38 3.38 0 0 1 3.375 3.375v1ZM9 12.25a5.626 5.626 0 0 0 5.625-5.625A5.626 5.626 0 0 0 9 1a5.626 5.626 0 0 0-5.625 5.625A5.626 5.626 0 0 0 9 12.25Zm0-9.375a3.756 3.756 0 0 1 3.75 3.75A3.756 3.756 0 0 1 9 10.375a3.756 3.756 0 0 1-3.75-3.75A3.756 3.756 0 0 1 9 2.875Z" fill="#484848" stroke="#484848" stroke-width=".039"/></svg>