<svg width="22" height="16" fill="none" xmlns="http://www.w3.org/2000/svg"><path d="M9.75 5.5a.25.25 0 0 0 .25-.25v-.5a.25.25 0 0 0-.25-.25h-7.5a.25.25 0 0 0-.25.25v.5c0 .138.112.25.25.25h7.5Zm11 6H20V8.122c0-.525-.212-1.04-.587-1.413L16.79 4.088a1.991 1.991 0 0 0-1.413-.588H14V1.956C14 1.153 13.306.5 12.456.5H4.544C3.694.5 3 1.153 3 1.956V2.5H1.25a.25.25 0 0 0-.25.25v.5c0 .138.113.25.25.25h7.5A.25.25 0 0 0 9 3.25v-.5a.25.25 0 0 0-.25-.25H4v-.544c0-.253.244-.456.544-.456h7.912c.3 0 .544.203.544.456V11.5H7.487a2.492 2.492 0 0 0-1.987-1c-.566 0-1.081.194-1.5.512V8.5H3V13a2.5 2.5 0 1 0 4.95-.5h6.1a2.5 2.5 0 1 0 4.9 0h1.8a.25.25 0 0 0 .25-.25v-.5a.25.25 0 0 0-.25-.25Zm-15.25 3a1.5 1.5 0 1 1 0-3 1.5 1.5 0 0 1 0 3Zm8.5-10h1.378c.263 0 .522.106.706.294l2.622 2.622c.025.025.035.059.056.087H14V4.5Zm2.5 10a1.5 1.5 0 1 1 0-3 1.5 1.5 0 0 1 0 3Zm2.5-3h-.512a2.492 2.492 0 0 0-1.988-1c-.813 0-1.531.397-1.988 1H14v-3h5v3ZM9 7.25v-.5a.25.25 0 0 0-.25-.25h-7.5a.25.25 0 0 0-.25.25v.5c0 .138.113.25.25.25h7.5A.25.25 0 0 0 9 7.25Z" fill="#000" stroke="#000" stroke-width=".031"/></svg>