<svg width="22" height="13" fill="none" xmlns="http://www.w3.org/2000/svg"><path d="M20.77 5.654A11.318 11.318 0 0 0 11 .11a11.318 11.318 0 0 0-9.77 5.543 1.667 1.667 0 0 0 0 1.692A11.318 11.318 0 0 0 11 12.89c4.162 0 7.812-2.222 9.77-5.543a1.667 1.667 0 0 0 0-1.692ZM11 11.222A9.65 9.65 0 0 1 2.667 6.5a9.638 9.638 0 0 1 7.505-4.688 1.944 1.944 0 1 1-3.339 1.354 4.722 4.722 0 1 0 7.92-.641 9.604 9.604 0 0 1 4.58 3.975A9.65 9.65 0 0 1 11 11.222Z" fill="#000" stroke="#000" stroke-width=".035"/></svg>