<svg width="18" height="21" viewBox="0 0 18 21" fill="none" xmlns="http://www.w3.org/2000/svg">
<path d="M14.1802 13C15.2218 13 16.1073 13.3646 16.8364 14.0938C17.5655 14.8229 17.9302 15.7084 17.9302 16.75C17.9302 17.7916 17.5655 18.6771 16.8364 19.4062C16.1073 20.1354 15.2218 20.5 14.1802 20.5C13.1386 20.5 12.2531 20.1354 11.5239 19.4062C10.7948 18.6771 10.4302 17.7916 10.4302 16.75C10.4302 16.3594 10.4823 15.9817 10.5864 15.6172L6.7583 13.2344C6.02914 13.9115 5.16976 14.25 4.18018 14.25C3.13851 14.25 2.25309 13.8854 1.52393 13.1562C0.79476 12.4271 0.430176 11.5417 0.430176 10.5C0.430176 9.45834 0.79476 8.57291 1.52393 7.84375C2.25309 7.11459 3.13851 6.75 4.18018 6.75C5.16976 6.75 6.02914 7.08854 6.7583 7.76562L10.5864 5.38281C10.4823 5.01823 10.4302 4.64062 10.4302 4.25C10.4302 3.20834 10.7948 2.32291 11.5239 1.59375C12.2531 0.864584 13.1386 0.5 14.1802 0.5C15.2218 0.5 16.1073 0.864584 16.8364 1.59375C17.5655 2.32291 17.9302 3.20834 17.9302 4.25C17.9302 5.29166 17.5655 6.17709 16.8364 6.90625C16.1073 7.63541 15.2218 8 14.1802 8C13.1906 8 12.3312 7.66146 11.6021 6.98438L7.77393 9.36719C8.0083 10.1224 8.0083 10.8776 7.77393 11.6328L11.6021 14.0156C12.3312 13.3385 13.1906 13 14.1802 13ZM15.5083 2.92188C15.1437 2.55729 14.7011 2.375 14.1802 2.375C13.6593 2.375 13.2167 2.55729 12.8521 2.92188C12.4875 3.28646 12.3052 3.72916 12.3052 4.25C12.3052 4.77084 12.4875 5.21354 12.8521 5.57812C13.2167 5.94271 13.6593 6.125 14.1802 6.125C14.7011 6.125 15.1437 5.94271 15.5083 5.57812C15.8729 5.21354 16.0552 4.77084 16.0552 4.25C16.0552 3.72916 15.8729 3.28646 15.5083 2.92188ZM2.85205 11.8281C3.21664 12.1927 3.65934 12.375 4.18018 12.375C4.70101 12.375 5.14371 12.1927 5.5083 11.8281C5.87289 11.4635 6.05518 11.0208 6.05518 10.5C6.05518 9.97916 5.87289 9.53646 5.5083 9.17188C5.14371 8.80729 4.70101 8.625 4.18018 8.625C3.65934 8.625 3.21664 8.80729 2.85205 9.17188C2.48746 9.53646 2.30518 9.97916 2.30518 10.5C2.30518 11.0208 2.48746 11.4635 2.85205 11.8281ZM12.8521 18.0781C13.2167 18.4428 13.6593 18.625 14.1802 18.625C14.7011 18.625 15.1437 18.4428 15.5083 18.0781C15.8729 17.7135 16.0552 17.2709 16.0552 16.75C16.0552 16.2291 15.8729 15.7865 15.5083 15.4219C15.1437 15.0573 14.7011 14.875 14.1802 14.875C13.6593 14.875 13.2167 15.0573 12.8521 15.4219C12.4875 15.7865 12.3052 16.2291 12.3052 16.75C12.3052 17.2709 12.4875 17.7135 12.8521 18.0781Z" fill="black"/>
</svg>
