<svg width="24" height="24" viewBox="0 0 24 24" fill="none" xmlns="http://www.w3.org/2000/svg">
<path d="M0 12C0 18.6274 5.37258 24 12 24C18.6274 24 24 18.6274 24 12C24 5.37258 18.6274 0 12 0C5.37258 0 0 5.37258 0 12Z" fill="#EA4C89"/>
<path d="M12 6C8.688 6 6 8.688 6 12C6 15.312 8.688 18 12 18C15.3 18 18 15.312 18 12C18 8.688 15.3 6 12 6ZM15.96 8.76C16.68 9.636 17.1 10.74 17.124 11.952C16.956 11.916 15.264 11.58 13.56 11.784C13.524 11.7 13.488 11.604 13.452 11.52C13.344 11.268 13.236 11.016 13.116 10.776C14.988 10.02 15.852 8.904 15.96 8.76ZM12 6.888C13.296 6.888 14.496 7.38 15.396 8.172C15.3 8.304 14.532 9.336 12.708 10.02C11.868 8.472 10.932 7.212 10.8 7.02C11.184 6.936 11.58 6.888 12 6.888ZM9.816 7.368C9.948 7.548 10.86 8.82 11.712 10.332C9.312 10.968 7.2 10.956 6.972 10.956C7.32 9.36 8.388 8.04 9.816 7.368ZM6.876 12.012C6.876 11.964 6.876 11.904 6.876 11.856C7.092 11.868 9.588 11.892 12.144 11.124C12.288 11.412 12.432 11.7 12.564 12C12.504 12.024 12.432 12.036 12.36 12.06C9.72 12.912 8.316 15.24 8.196 15.432C7.368 14.52 6.876 13.32 6.876 12.012ZM12 17.124C10.812 17.124 9.72 16.716 8.856 16.044C8.952 15.852 9.984 13.848 12.876 12.84C12.888 12.828 12.9 12.828 12.912 12.828C13.632 14.7 13.932 16.26 14.004 16.716C13.392 16.98 12.708 17.124 12 17.124ZM14.856 16.248C14.808 15.936 14.532 14.436 13.86 12.6C15.468 12.348 16.872 12.768 17.052 12.816C16.824 14.244 16.008 15.48 14.856 16.248Z" fill="white"/>
</svg>
