<svg width="132" height="48" viewBox="0 0 132 48" fill="none" xmlns="http://www.w3.org/2000/svg">
<path d="M2.61375 20.0932V23.3065H7.00111V25.3446H2.61375V28.7415H7.5612V30.8347H0V18H7.5612V20.0932H2.61375Z" fill="#EB6D20"/>
<path d="M17.8897 23.1963V25.363H9.97381V23.1963H17.8897Z" fill="#EB6D20"/>
<path d="M20.1489 25.7486C20.1489 24.6959 20.3667 23.7778 20.8023 22.9944C21.238 22.1987 21.8416 21.5866 22.6133 21.1582C23.385 20.7175 24.2687 20.4972 25.2644 20.4972C26.5464 20.4972 27.6043 20.8154 28.4382 21.452C29.2846 22.0763 29.8509 22.9576 30.1371 24.096H27.318C27.1687 23.6554 26.9135 23.3126 26.5526 23.0678C26.2041 22.8107 25.7685 22.6822 25.2457 22.6822C24.4989 22.6822 23.9077 22.9515 23.4721 23.4901C23.0365 24.0165 22.8187 24.7693 22.8187 25.7486C22.8187 26.7156 23.0365 27.4685 23.4721 28.0071C23.9077 28.5334 24.4989 28.7966 25.2457 28.7966C26.3037 28.7966 26.9944 28.3314 27.318 27.4011H30.1371C29.8509 28.5028 29.2846 29.3781 28.4382 30.0268C27.5919 30.6756 26.5339 31 25.2644 31C24.2687 31 23.385 30.7858 22.6133 30.3573C21.8416 29.9167 21.238 29.3046 20.8023 28.5212C20.3667 27.7255 20.1489 26.8013 20.1489 25.7486Z" fill="#EB6D20"/>
<path d="M36.6447 31C35.649 31 34.7528 30.7858 33.9563 30.3573C33.1597 29.9167 32.5311 29.2985 32.0706 28.5028C31.6225 27.7072 31.3985 26.7891 31.3985 25.7486C31.3985 24.7081 31.6288 23.79 32.0893 22.9944C32.5623 22.1987 33.2032 21.5866 34.0123 21.1582C34.8213 20.7175 35.7236 20.4972 36.7194 20.4972C37.7151 20.4972 38.6174 20.7175 39.4265 21.1582C40.2355 21.5866 40.8702 22.1987 41.3308 22.9944C41.8037 23.79 42.0402 24.7081 42.0402 25.7486C42.0402 26.7891 41.7975 27.7072 41.3121 28.5028C40.8391 29.2985 40.1919 29.9167 39.3704 30.3573C38.5614 30.7858 37.6528 31 36.6447 31ZM36.6447 28.7599C37.1176 28.7599 37.5595 28.6497 37.9702 28.4294C38.3934 28.1968 38.7295 27.854 38.9784 27.4011C39.2273 26.9482 39.3518 26.3974 39.3518 25.7486C39.3518 24.7815 39.0904 24.041 38.5676 23.5268C38.0573 23.0005 37.4288 22.7373 36.682 22.7373C35.9352 22.7373 35.3067 23.0005 34.7964 23.5268C34.2985 24.041 34.0496 24.7815 34.0496 25.7486C34.0496 26.7156 34.2923 27.4623 34.7777 27.9887C35.2756 28.5028 35.8979 28.7599 36.6447 28.7599Z" fill="#EB6D20"/>
<path d="M56.8022 20.5155C58.0717 20.5155 59.0923 20.9011 59.864 21.6723C60.6481 22.4313 61.0402 23.4962 61.0402 24.8672V30.8347H58.4264V25.2161C58.4264 24.4204 58.2211 23.8145 57.8103 23.3983C57.3996 22.9699 56.8395 22.7557 56.1301 22.7557C55.4206 22.7557 54.8543 22.9699 54.4311 23.3983C54.0204 23.8145 53.815 24.4204 53.815 25.2161V30.8347H51.2013V25.2161C51.2013 24.4204 50.9959 23.8145 50.5852 23.3983C50.1745 22.9699 49.6144 22.7557 48.9049 22.7557C48.183 22.7557 47.6105 22.9699 47.1873 23.3983C46.7766 23.8145 46.5712 24.4204 46.5712 25.2161V30.8347H43.9575V20.6624H46.5712V21.8927C46.9073 21.4642 47.3367 21.1276 47.8594 20.8828C48.3946 20.6379 48.9796 20.5155 49.6144 20.5155C50.4234 20.5155 51.1453 20.6869 51.7801 21.0297C52.4148 21.3602 52.9065 21.8376 53.255 22.4619C53.591 21.8743 54.0764 21.403 54.7112 21.048C55.3584 20.693 56.0554 20.5155 56.8022 20.5155Z" fill="#EB6D20"/>
<path d="M76.3652 20.5155C77.6347 20.5155 78.6553 20.9011 79.427 21.6723C80.2111 22.4313 80.6032 23.4962 80.6032 24.8672V30.8347H77.9894V25.2161C77.9894 24.4204 77.7841 23.8145 77.3733 23.3983C76.9626 22.9699 76.4025 22.7557 75.6931 22.7557C74.9836 22.7557 74.4173 22.9699 73.9941 23.3983C73.5834 23.8145 73.378 24.4204 73.378 25.2161V30.8347H70.7643V25.2161C70.7643 24.4204 70.5589 23.8145 70.1482 23.3983C69.7375 22.9699 69.1774 22.7557 68.4679 22.7557C67.746 22.7557 67.1735 22.9699 66.7503 23.3983C66.3396 23.8145 66.1342 24.4204 66.1342 25.2161V30.8347H63.5205V20.6624H66.1342V21.8927C66.4703 21.4642 66.8997 21.1276 67.4224 20.8828C67.9576 20.6379 68.5426 20.5155 69.1774 20.5155C69.9864 20.5155 70.7083 20.6869 71.343 21.0297C71.9778 21.3602 72.4694 21.8376 72.8179 22.4619C73.154 21.8743 73.6394 21.403 74.2742 21.048C74.9214 20.693 75.6184 20.5155 76.3652 20.5155Z" fill="#EB6D20"/>
<path d="M92.6983 25.5282C92.6983 25.8955 92.6734 26.226 92.6236 26.5198H85.0625C85.1247 27.2542 85.3861 27.8296 85.8466 28.2458C86.3071 28.662 86.8734 28.8701 87.5455 28.8701C88.5163 28.8701 89.2071 28.46 89.6178 27.6398H92.437C92.1382 28.6191 91.5657 29.427 90.7193 30.0636C89.873 30.6879 88.8337 31 87.6015 31C86.6058 31 85.7097 30.7858 84.9131 30.3573C84.129 29.9167 83.5129 29.2985 83.0648 28.5028C82.6292 27.7072 82.4114 26.7891 82.4114 25.7486C82.4114 24.6959 82.6292 23.7717 83.0648 22.976C83.5004 22.1803 84.1103 21.5683 84.8944 21.1398C85.6786 20.7114 86.5809 20.4972 87.6015 20.4972C88.5848 20.4972 89.4623 20.7053 90.2339 21.1215C91.0181 21.5377 91.6217 22.1314 92.0449 22.9025C92.4805 23.6615 92.6983 24.5367 92.6983 25.5282ZM89.9912 24.7938C89.9788 24.1328 89.7361 23.6064 89.2631 23.2147C88.7902 22.8107 88.2114 22.6088 87.5268 22.6088C86.8796 22.6088 86.332 22.8046 85.8839 23.1963C85.4483 23.5758 85.1807 24.1083 85.0811 24.7938H89.9912Z" fill="#EB6D20"/>
<path d="M97.2199 22.2415C97.5559 21.7029 97.9915 21.2806 98.5267 20.9746C99.0744 20.6686 99.6967 20.5155 100.394 20.5155V23.2147H99.7029C98.8815 23.2147 98.2591 23.4044 97.836 23.7839C97.4252 24.1634 97.2199 24.8244 97.2199 25.7669V30.8347H94.6061V20.6624H97.2199V22.2415Z" fill="#EB6D20"/>
<path d="M101.482 25.7486C101.482 24.6959 101.7 23.7778 102.136 22.9944C102.571 22.1987 103.175 21.5866 103.946 21.1582C104.718 20.7175 105.602 20.4972 106.598 20.4972C107.88 20.4972 108.938 20.8154 109.771 21.452C110.618 22.0763 111.184 22.9576 111.47 24.096H108.651C108.502 23.6554 108.247 23.3126 107.886 23.0678C107.537 22.8107 107.102 22.6822 106.579 22.6822C105.832 22.6822 105.241 22.9515 104.805 23.4901C104.37 24.0165 104.152 24.7693 104.152 25.7486C104.152 26.7156 104.37 27.4685 104.805 28.0071C105.241 28.5334 105.832 28.7966 106.579 28.7966C107.637 28.7966 108.328 28.3314 108.651 27.4011H111.47C111.184 28.5028 110.618 29.3781 109.771 30.0268C108.925 30.6756 107.867 31 106.598 31C105.602 31 104.718 30.7858 103.946 30.3573C103.175 29.9167 102.571 29.3046 102.136 28.5212C101.7 27.7255 101.482 26.8013 101.482 25.7486Z" fill="#EB6D20"/>
<path d="M123 25.5282C123 25.8955 122.975 26.226 122.925 26.5198H115.364C115.426 27.2542 115.688 27.8296 116.148 28.2458C116.609 28.662 117.175 28.8701 117.847 28.8701C118.818 28.8701 119.509 28.46 119.92 27.6398H122.739C122.44 28.6191 121.867 29.427 121.021 30.0636C120.175 30.6879 119.135 31 117.903 31C116.907 31 116.011 30.7858 115.215 30.3573C114.431 29.9167 113.815 29.2985 113.366 28.5028C112.931 27.7072 112.713 26.7891 112.713 25.7486C112.713 24.6959 112.931 23.7717 113.366 22.976C113.802 22.1803 114.412 21.5683 115.196 21.1398C115.98 20.7114 116.883 20.4972 117.903 20.4972C118.886 20.4972 119.764 20.7053 120.536 21.1215C121.32 21.5377 121.923 22.1314 122.347 22.9025C122.782 23.6615 123 24.5367 123 25.5282ZM120.293 24.7938C120.28 24.1328 120.038 23.6064 119.565 23.2147C119.092 22.8107 118.513 22.6088 117.829 22.6088C117.181 22.6088 116.634 22.8046 116.186 23.1963C115.75 23.5758 115.482 24.1083 115.383 24.7938H120.293Z" fill="#EB6D20"/>
</svg>
