<svg width="136" height="28" viewBox="0 0 136 28" fill="none" xmlns="http://www.w3.org/2000/svg">
<path d="M2.8 9.28V12.78H7.5V15H2.8V18.7H8.1V20.98H0V7H8.1V9.28H2.8Z" fill="#EB6D20"/>
<path d="M19.1645 12.66V15.02H10.6845V12.66H19.1645Z" fill="#EB6D20"/>
<path d="M21.5847 15.44C21.5847 14.2933 21.818 13.2933 22.2847 12.44C22.7514 11.5733 23.398 10.9067 24.2247 10.44C25.0514 9.96 25.998 9.72 27.0647 9.72C28.438 9.72 29.5714 10.0667 30.4647 10.76C31.3714 11.44 31.978 12.4 32.2847 13.64H29.2647C29.1047 13.16 28.8314 12.7867 28.4447 12.52C28.0714 12.24 27.6047 12.1 27.0447 12.1C26.2447 12.1 25.6114 12.3933 25.1447 12.98C24.678 13.5533 24.4447 14.3733 24.4447 15.44C24.4447 16.4933 24.678 17.3133 25.1447 17.9C25.6114 18.4733 26.2447 18.76 27.0447 18.76C28.178 18.76 28.918 18.2533 29.2647 17.24H32.2847C31.978 18.44 31.3714 19.3933 30.4647 20.1C29.558 20.8067 28.4247 21.16 27.0647 21.16C25.998 21.16 25.0514 20.9267 24.2247 20.46C23.398 19.98 22.7514 19.3133 22.2847 18.46C21.818 17.5933 21.5847 16.5867 21.5847 15.44Z" fill="#EB6D20"/>
<path d="M39.2559 21.16C38.1893 21.16 37.2293 20.9267 36.3759 20.46C35.5226 19.98 34.8493 19.3067 34.3559 18.44C33.8759 17.5733 33.6359 16.5733 33.6359 15.44C33.6359 14.3067 33.8826 13.3067 34.3759 12.44C34.8826 11.5733 35.5693 10.9067 36.4359 10.44C37.3026 9.96 38.2693 9.72 39.3359 9.72C40.4026 9.72 41.3693 9.96 42.2359 10.44C43.1026 10.9067 43.7826 11.5733 44.2759 12.44C44.7826 13.3067 45.0359 14.3067 45.0359 15.44C45.0359 16.5733 44.7759 17.5733 44.2559 18.44C43.7493 19.3067 43.0559 19.98 42.1759 20.46C41.3093 20.9267 40.3359 21.16 39.2559 21.16ZM39.2559 18.72C39.7626 18.72 40.2359 18.6 40.6759 18.36C41.1293 18.1067 41.4893 17.7333 41.7559 17.24C42.0226 16.7467 42.1559 16.1467 42.1559 15.44C42.1559 14.3867 41.8759 13.58 41.3159 13.02C40.7693 12.4467 40.0959 12.16 39.2959 12.16C38.4959 12.16 37.8226 12.4467 37.2759 13.02C36.7426 13.58 36.4759 14.3867 36.4759 15.44C36.4759 16.4933 36.7359 17.3067 37.2559 17.88C37.7893 18.44 38.4559 18.72 39.2559 18.72Z" fill="#EB6D20"/>
<path d="M60.8498 9.74C62.2098 9.74 63.3032 10.16 64.1298 11C64.9698 11.8267 65.3898 12.9867 65.3898 14.48V20.98H62.5898V14.86C62.5898 13.9933 62.3698 13.3333 61.9298 12.88C61.4898 12.4133 60.8898 12.18 60.1298 12.18C59.3698 12.18 58.7632 12.4133 58.3098 12.88C57.8698 13.3333 57.6498 13.9933 57.6498 14.86V20.98H54.8498V14.86C54.8498 13.9933 54.6298 13.3333 54.1898 12.88C53.7498 12.4133 53.1498 12.18 52.3898 12.18C51.6165 12.18 51.0032 12.4133 50.5498 12.88C50.1098 13.3333 49.8898 13.9933 49.8898 14.86V20.98H47.0898V9.9H49.8898V11.24C50.2498 10.7733 50.7098 10.4067 51.2698 10.14C51.8432 9.87333 52.4698 9.74 53.1498 9.74C54.0165 9.74 54.7898 9.92667 55.4698 10.3C56.1498 10.66 56.6765 11.18 57.0498 11.86C57.4098 11.22 57.9298 10.7067 58.6098 10.32C59.3032 9.93333 60.0498 9.74 60.8498 9.74Z" fill="#EB6D20"/>
<path d="M81.8069 9.74C83.1669 9.74 84.2602 10.16 85.0869 11C85.9269 11.8267 86.3469 12.9867 86.3469 14.48V20.98H83.5469V14.86C83.5469 13.9933 83.3269 13.3333 82.8869 12.88C82.4469 12.4133 81.8469 12.18 81.0869 12.18C80.3269 12.18 79.7202 12.4133 79.2669 12.88C78.8269 13.3333 78.6069 13.9933 78.6069 14.86V20.98H75.8069V14.86C75.8069 13.9933 75.5869 13.3333 75.1469 12.88C74.7069 12.4133 74.1069 12.18 73.3469 12.18C72.5735 12.18 71.9602 12.4133 71.5069 12.88C71.0669 13.3333 70.8469 13.9933 70.8469 14.86V20.98H68.0469V9.9H70.8469V11.24C71.2069 10.7733 71.6669 10.4067 72.2269 10.14C72.8002 9.87333 73.4269 9.74 74.1069 9.74C74.9735 9.74 75.7469 9.92667 76.4269 10.3C77.1069 10.66 77.6335 11.18 78.0069 11.86C78.3669 11.22 78.8869 10.7067 79.5669 10.32C80.2602 9.93333 81.0069 9.74 81.8069 9.74Z" fill="#EB6D20"/>
<path d="M99.3039 15.2C99.3039 15.6 99.2772 15.96 99.2239 16.28H91.1239C91.1906 17.08 91.4706 17.7067 91.9639 18.16C92.4572 18.6133 93.0639 18.84 93.7839 18.84C94.8239 18.84 95.5639 18.3933 96.0039 17.5H99.0239C98.7039 18.5667 98.0906 19.4467 97.1839 20.14C96.2772 20.82 95.1639 21.16 93.8439 21.16C92.7772 21.16 91.8172 20.9267 90.9639 20.46C90.1239 19.98 89.4639 19.3067 88.9839 18.44C88.5172 17.5733 88.2839 16.5733 88.2839 15.44C88.2839 14.2933 88.5172 13.2867 88.9839 12.42C89.4506 11.5533 90.1039 10.8867 90.9439 10.42C91.7839 9.95333 92.7506 9.72 93.8439 9.72C94.8972 9.72 95.8372 9.94667 96.6639 10.4C97.5039 10.8533 98.1506 11.5 98.6039 12.34C99.0706 13.1667 99.3039 14.12 99.3039 15.2ZM96.4039 14.4C96.3906 13.68 96.1306 13.1067 95.6239 12.68C95.1172 12.24 94.4972 12.02 93.7639 12.02C93.0706 12.02 92.4839 12.2333 92.0039 12.66C91.5372 13.0733 91.2506 13.6533 91.1439 14.4H96.4039Z" fill="#EB6D20"/>
<path d="M104.148 11.62C104.508 11.0333 104.974 10.5733 105.548 10.24C106.134 9.90667 106.801 9.74 107.548 9.74V12.68H106.808C105.928 12.68 105.261 12.8867 104.808 13.3C104.368 13.7133 104.148 14.4333 104.148 15.46V20.98H101.348V9.9H104.148V11.62Z" fill="#EB6D20"/>
<path d="M108.714 15.44C108.714 14.2933 108.947 13.2933 109.414 12.44C109.88 11.5733 110.527 10.9067 111.354 10.44C112.18 9.96 113.127 9.72 114.194 9.72C115.567 9.72 116.7 10.0667 117.594 10.76C118.5 11.44 119.107 12.4 119.414 13.64H116.394C116.234 13.16 115.96 12.7867 115.574 12.52C115.2 12.24 114.734 12.1 114.174 12.1C113.374 12.1 112.74 12.3933 112.274 12.98C111.807 13.5533 111.574 14.3733 111.574 15.44C111.574 16.4933 111.807 17.3133 112.274 17.9C112.74 18.4733 113.374 18.76 114.174 18.76C115.307 18.76 116.047 18.2533 116.394 17.24H119.414C119.107 18.44 118.5 19.3933 117.594 20.1C116.687 20.8067 115.554 21.16 114.194 21.16C113.127 21.16 112.18 20.9267 111.354 20.46C110.527 19.98 109.88 19.3133 109.414 18.46C108.947 17.5933 108.714 16.5867 108.714 15.44Z" fill="#EB6D20"/>
<path d="M131.765 15.2C131.765 15.6 131.738 15.96 131.685 16.28H123.585C123.652 17.08 123.932 17.7067 124.425 18.16C124.918 18.6133 125.525 18.84 126.245 18.84C127.285 18.84 128.025 18.3933 128.465 17.5H131.485C131.165 18.5667 130.551 19.4467 129.645 20.14C128.738 20.82 127.625 21.16 126.305 21.16C125.238 21.16 124.278 20.9267 123.425 20.46C122.585 19.98 121.925 19.3067 121.445 18.44C120.978 17.5733 120.745 16.5733 120.745 15.44C120.745 14.2933 120.978 13.2867 121.445 12.42C121.912 11.5533 122.565 10.8867 123.405 10.42C124.245 9.95333 125.212 9.72 126.305 9.72C127.358 9.72 128.298 9.94667 129.125 10.4C129.965 10.8533 130.612 11.5 131.065 12.34C131.532 13.1667 131.765 14.12 131.765 15.2ZM128.865 14.4C128.852 13.68 128.592 13.1067 128.085 12.68C127.578 12.24 126.958 12.02 126.225 12.02C125.532 12.02 124.945 12.2333 124.465 12.66C123.998 13.0733 123.712 13.6533 123.605 14.4H128.865Z" fill="#EB6D20"/>
</svg>
