<svg width="19" height="18" viewBox="0 0 19 18" fill="none" xmlns="http://www.w3.org/2000/svg">
<path d="M17.8369 6.0659L12.764 5.32631L10.4967 0.729091C10.0904 -0.090353 8.91332 -0.10077 8.5036 0.729091L6.23624 5.32631L1.16332 6.0659C0.253597 6.19784 -0.110986 7.31937 0.548736 7.96173L4.21887 11.5381L3.35082 16.5902C3.19457 17.5034 4.15638 18.1874 4.96193 17.7603L9.50013 15.3749L14.0383 17.7603C14.8439 18.184 15.8057 17.5034 15.6494 16.5902L14.7814 11.5381L18.4515 7.96173C19.1112 7.31937 18.7467 6.19784 17.8369 6.0659ZM12.9932 10.9548L13.8161 15.7603L9.50013 13.493L5.18415 15.7603L6.00707 10.9548L2.51401 7.55201L7.3404 6.85062L9.50013 2.47562L11.6598 6.85062L16.4862 7.55201L12.9932 10.9548Z" fill="black"/>
</svg>
