<svg width="21" height="21" viewBox="0 0 21 21" fill="none" xmlns="http://www.w3.org/2000/svg">
<path d="M10.48 13.7812C9.87592 13.7812 9.38623 14.2709 9.38623 14.875C9.38623 15.4791 9.87592 15.9688 10.48 15.9688C11.084 15.9688 11.5737 15.4791 11.5737 14.875C11.5737 14.2709 11.084 13.7812 10.48 13.7812ZM10.7796 12.8438H10.1546C9.89572 12.8438 9.68584 12.6339 9.68584 12.375V12.3601C9.68584 9.61234 12.7108 9.875 12.7108 8.16449C12.7108 7.38262 12.0171 6.59375 10.4671 6.59375C9.32865 6.59375 8.73799 6.97066 8.15416 7.71453C8.0015 7.90906 7.72236 7.94871 7.51947 7.80734L7.00643 7.44992C6.7867 7.29684 6.73846 6.99012 6.90311 6.77894C7.73225 5.71539 8.716 5.03125 10.4671 5.03125C12.5108 5.03125 14.2733 6.1934 14.2733 8.16449C14.2733 10.7979 11.2483 10.6586 11.2483 12.3601V12.375C11.2483 12.6339 11.0385 12.8438 10.7796 12.8438ZM10.48 2.0625C15.1136 2.0625 18.9175 5.81543 18.9175 10.5C18.9175 15.1598 15.1437 18.9375 10.48 18.9375C5.82201 18.9375 2.04248 15.1655 2.04248 10.5C2.04248 5.84363 5.816 2.0625 10.48 2.0625ZM10.48 0.8125C5.1301 0.8125 0.79248 5.15168 0.79248 10.5C0.79248 15.8514 5.1301 20.1875 10.48 20.1875C15.8299 20.1875 20.1675 15.8514 20.1675 10.5C20.1675 5.15168 15.8299 0.8125 10.48 0.8125Z" fill="black" stroke="black" stroke-width="0.0390625"/>
</svg>
