<svg width="50" height="50" viewBox="0 0 50 50" fill="none" xmlns="http://www.w3.org/2000/svg">
<path d="M40.8571 26.9042C40.3861 26.4333 39.7474 26.1688 39.0814 26.1688C38.4153 26.1688 37.7766 26.4333 37.3056 26.9042L34.937 29.2727C34.932 29.2727 34.9303 29.2836 34.9261 29.2878L33.754 30.4541C33.3665 30.844 32.9058 31.1535 32.3984 31.3646C31.8908 31.5758 31.3465 31.6846 30.7969 31.6846C30.2473 31.6846 29.703 31.5758 29.1954 31.3646C28.6879 31.1535 28.2273 30.844 27.8398 30.4541L19.5511 22.1654C19.1612 21.7779 18.8516 21.317 18.6405 20.8094C18.4292 20.3017 18.3206 19.7573 18.3206 19.2075C18.3206 18.6577 18.4292 18.1133 18.6405 17.6056C18.8516 17.098 19.1612 16.6371 19.5511 16.2495L20.7183 15.0774L20.7291 15.0707L23.0977 12.703C23.3309 12.4697 23.516 12.1929 23.6422 11.8881C23.7685 11.5834 23.8335 11.2567 23.8335 10.9268C23.8335 10.5969 23.7685 10.2702 23.6422 9.96547C23.516 9.66072 23.3309 9.38385 23.0977 9.15059L15.9912 2.03994C15.5127 1.58306 14.8766 1.32812 14.215 1.32812C13.5534 1.32812 12.9173 1.58306 12.4388 2.03994L10.0711 4.40765L10.0653 4.41686C7.24536 7.2422 5.5918 11.0251 5.43327 15.0137C5.27474 19.0023 6.62283 22.9045 9.2096 25.9447V28.8625C9.08904 28.9102 8.97266 28.9588 8.8588 29.0082L6.63677 26.7861C6.47681 26.6348 6.26501 26.5506 6.04485 26.5506C5.82469 26.5506 5.61288 26.6348 5.45292 26.7861L1.90304 30.336C1.74608 30.493 1.6579 30.7059 1.6579 30.9279C1.6579 31.15 1.74608 31.3629 1.90304 31.5199L4.12506 33.7419C4.07483 33.8558 4.02711 33.9721 3.97938 34.0927H0.837236C0.615184 34.0927 0.402233 34.1809 0.245218 34.3379C0.0882113 34.4949 0 34.7079 0 34.9299V39.9534C0 40.1754 0.0882113 40.3884 0.245218 40.5454C0.402233 40.7023 0.615184 40.7906 0.837236 40.7906H3.97938C4.02711 40.9112 4.07483 41.0275 4.12506 41.1406L1.90304 43.3634C1.74608 43.5204 1.6579 43.7333 1.6579 43.9553C1.6579 44.1774 1.74608 44.3903 1.90304 44.5473L5.45292 48.0972C5.60993 48.2541 5.82284 48.3423 6.04485 48.3423C6.26685 48.3423 6.47976 48.2541 6.63677 48.0972L8.8588 45.8751C8.97266 45.9245 9.08904 45.9731 9.2096 46.0208V49.163C9.2096 49.385 9.29784 49.598 9.45483 49.755C9.61181 49.9119 9.8248 50.0002 10.0468 50.0002H15.0703C15.2923 50.0002 15.5053 49.9119 15.6623 49.755C15.8192 49.598 15.9075 49.385 15.9075 49.163V46.0208C16.0281 45.9731 16.1444 45.9245 16.2583 45.8751L18.4803 48.0972C18.6403 48.2484 18.8521 48.3327 19.0722 48.3327C19.2924 48.3327 19.5042 48.2484 19.6642 48.0972L23.2141 44.5473C23.371 44.3903 23.4592 44.1774 23.4592 43.9553C23.4592 43.7333 23.371 43.5204 23.2141 43.3634L20.992 41.1406C21.0423 41.0275 21.09 40.9112 21.1377 40.7906H24.0546C27.0927 43.3817 30.9956 44.7326 34.9853 44.5741C38.9751 44.4157 42.7587 42.7596 45.5817 39.9358L45.5925 39.9291L47.9602 37.5605C48.1935 37.3273 48.3786 37.0504 48.5048 36.7457C48.631 36.4409 48.6961 36.1142 48.6961 35.7843C48.6961 35.4545 48.631 35.1278 48.5048 34.823C48.3786 34.5183 48.1935 34.2414 47.9602 34.0081L40.8571 26.9042ZM13.6243 3.22296C13.7838 3.07075 13.9958 2.98582 14.2163 2.98582C14.4367 2.98582 14.6487 3.07075 14.8082 3.22296L21.9121 10.3277C22.0689 10.4847 22.1569 10.6975 22.1569 10.9193C22.1569 11.141 22.0689 11.3538 21.9121 11.5108L20.1372 13.2849L11.8486 4.99622L13.6243 3.22296ZM23.4426 39.1161H20.5458C20.3685 39.1161 20.1958 39.1724 20.0526 39.2768C19.9094 39.3812 19.803 39.5284 19.7487 39.6972C19.6188 40.1159 19.4492 40.5213 19.2422 40.9078C19.1553 41.0665 19.1222 41.2492 19.1478 41.4284C19.1735 41.6076 19.2566 41.7736 19.3845 41.9016L21.4374 43.9553L19.0722 46.3214L17.0185 44.2676C16.8904 44.1395 16.7242 44.0563 16.5449 44.0307C16.3655 44.005 16.1828 44.0382 16.0239 44.1253C15.6376 44.3329 15.2322 44.5025 14.8132 44.6318C14.6446 44.6863 14.4976 44.7927 14.3933 44.9359C14.2891 45.0791 14.2329 45.2517 14.233 45.4289V48.3257H10.8841V45.4289C10.8842 45.2517 10.828 45.0791 10.7237 44.9359C10.6195 44.7927 10.4725 44.6863 10.3039 44.6318C9.88491 44.5025 9.47944 44.3329 9.09322 44.1253C8.93432 44.0382 8.75155 44.005 8.57221 44.0307C8.39287 44.0563 8.22668 44.1395 8.09859 44.2676L6.04485 46.3214L3.68384 43.9553L5.73674 41.9016C5.8647 41.7736 5.94773 41.6076 5.97339 41.4284C5.99905 41.2492 5.96595 41.0665 5.87907 40.9078C5.67352 40.5212 5.50531 40.1158 5.37673 39.6972C5.32206 39.527 5.21439 39.3788 5.06947 39.2744C4.92456 39.1698 4.74999 39.1144 4.57131 39.1161H1.67447V35.7672H4.57131C4.74857 35.7672 4.92125 35.7109 5.06448 35.6065C5.20772 35.5021 5.31411 35.3549 5.36836 35.1861C5.49693 34.7675 5.66514 34.3621 5.8707 33.9755C5.95758 33.8167 5.99068 33.6341 5.96502 33.4549C5.93935 33.2757 5.85633 33.1097 5.72837 32.9817L3.68384 30.9279L6.04485 28.5619L8.09859 30.6157C8.22668 30.7438 8.39287 30.827 8.57221 30.8526C8.75155 30.8783 8.93432 30.8451 9.09322 30.758C9.47944 30.5504 9.88491 30.3808 10.3039 30.2515C10.4725 30.197 10.6195 30.0906 10.7237 29.9474C10.828 29.8041 10.8842 29.6316 10.8841 29.4544V26.5576H14.233V29.4544C14.2329 29.6316 14.2891 29.8041 14.3933 29.9474C14.4976 30.0906 14.6446 30.197 14.8132 30.2515C15.2322 30.3808 15.6376 30.5504 16.0239 30.758C16.1828 30.8451 16.3655 30.8783 16.5449 30.8526C16.7242 30.827 16.8904 30.7438 17.0185 30.6157L19.0722 28.5619L21.4374 30.9279L19.3845 32.9817C19.2566 33.1097 19.1735 33.2757 19.1478 33.4549C19.1222 33.6341 19.1553 33.8167 19.2422 33.9755C19.4492 34.362 19.6188 34.7673 19.7487 35.1861C19.803 35.3549 19.9094 35.5021 20.0526 35.6065C20.1958 35.7109 20.3685 35.7672 20.5458 35.7672H23.4426V39.1161ZM25.1171 39.4987V34.9299C25.1171 34.7079 25.0288 34.4949 24.8719 34.3379C24.7149 34.1809 24.5019 34.0927 24.2799 34.0927H21.1377C21.09 33.9721 21.0423 33.8558 20.992 33.7419L23.2141 31.5199C23.371 31.3629 23.4592 31.15 23.4592 30.9279C23.4592 30.7059 23.371 30.493 23.2141 30.336L19.6642 26.7861C19.5072 26.6292 19.2943 26.541 19.0722 26.541C18.8502 26.541 18.6373 26.6292 18.4803 26.7861L16.2583 29.0082C16.1444 28.9588 16.0281 28.9102 15.9075 28.8625V25.7203C15.9075 25.4983 15.8192 25.2853 15.6623 25.1283C15.5053 24.9713 15.2923 24.8831 15.0703 24.8831H10.5023C8.27198 22.2723 7.0615 18.9429 7.09441 15.5093C7.12739 12.0758 8.4015 8.77015 10.6815 6.20268L18.9508 14.4721L18.3648 15.0632C17.8188 15.6064 17.3855 16.2522 17.0899 16.9634C16.7943 17.6747 16.6421 18.4373 16.6421 19.2075C16.6421 19.9776 16.7943 20.7403 17.0899 21.4515C17.3855 22.1628 17.8188 22.8085 18.3648 23.3518L26.6534 31.6404C27.1961 32.1861 27.8413 32.6192 28.5519 32.9149C29.2624 33.2105 30.0243 33.3629 30.794 33.3633C31.5636 33.3637 32.3256 33.2121 33.0365 32.9171C33.7473 32.6222 34.3929 32.1897 34.9362 31.6446L35.5315 31.0535L43.8017 39.3229C41.2334 41.6032 37.9267 42.8772 34.4923 42.9096C31.0579 42.9419 27.7278 41.7303 25.1171 39.4987ZM46.7764 36.3767L45.0023 38.1508L36.7136 29.8621L38.4886 28.0889C38.6456 27.9319 38.8585 27.8437 39.0805 27.8437C39.3026 27.8437 39.5155 27.9319 39.6724 28.0889L46.7764 35.1928C46.9334 35.3498 47.0215 35.5627 47.0215 35.7848C47.0215 36.0068 46.9334 36.2197 46.7764 36.3767Z" fill="black"/>
<path d="M12.5587 33.2556C11.7308 33.2556 10.9214 33.5011 10.2331 33.9611C9.54461 34.4211 9.00803 35.0748 8.69122 35.8398C8.37441 36.6047 8.29144 37.4464 8.45302 38.2585C8.61453 39.0706 9.01322 39.8165 9.5987 40.4018C10.1841 40.9873 10.93 41.386 11.7421 41.5475C12.5541 41.7091 13.3958 41.6261 14.1607 41.3093C14.9257 40.9925 15.5794 40.4559 16.0395 39.7675C16.4995 39.0791 16.7449 38.2697 16.7449 37.4418C16.7436 36.332 16.3021 35.268 15.5174 34.4832C14.7325 33.6984 13.6686 33.257 12.5587 33.2556ZM12.5587 39.9535C12.062 39.9535 11.5763 39.8062 11.1633 39.5302C10.7502 39.2542 10.4283 38.8619 10.2383 38.4029C10.0481 37.9441 9.99839 37.439 10.0953 36.9518C10.1922 36.4646 10.4314 36.017 10.7827 35.6658C11.1339 35.3145 11.5815 35.0753 12.0687 34.9783C12.556 34.8814 13.061 34.9312 13.52 35.1213C13.9789 35.3114 14.3712 35.6333 14.6471 36.0464C14.9232 36.4594 15.0705 36.9451 15.0705 37.4418C15.0705 38.1079 14.8058 38.7468 14.3348 39.2178C13.8637 39.6889 13.2249 39.9535 12.5587 39.9535Z" fill="black"/>
<path d="M28.5798 0.00777998C28.3598 -0.0224191 28.1367 0.0360366 27.9597 0.170279C27.7828 0.304522 27.6664 0.503566 27.6362 0.723617C27.606 0.943668 27.6644 1.1667 27.7987 1.34366C27.9329 1.52061 28.132 1.63698 28.352 1.66718C33.4017 2.37321 38.0837 4.7055 41.6891 8.31082C45.2944 11.9162 47.6266 16.5982 48.3327 21.6478C48.3602 21.8482 48.4593 22.0318 48.6117 22.1647C48.764 22.2977 48.9594 22.371 49.1616 22.3712C49.1997 22.3712 49.2377 22.3687 49.2754 22.3637C49.3843 22.3488 49.4893 22.3125 49.5843 22.257C49.6792 22.2015 49.7624 22.1278 49.8288 22.0402C49.8953 21.9526 49.9439 21.8527 49.9717 21.7463C49.9996 21.6399 50.0062 21.529 49.9913 21.4201C49.2346 16.0088 46.7352 10.9915 42.8717 7.1278C39.0082 3.26417 33.991 0.764658 28.5798 0.00777998Z" fill="black"/>
<path d="M28.3213 6.7528C32.0389 7.41112 35.4645 9.19586 38.1341 11.8655C40.8037 14.5352 42.5884 17.9606 43.2468 21.6782C43.2807 21.8724 43.382 22.0483 43.5328 22.1751C43.6836 22.3019 43.8743 22.3714 44.0714 22.3714C44.12 22.3714 44.1685 22.3672 44.2163 22.3589C44.435 22.3207 44.6295 22.1971 44.7572 22.0155C44.8849 21.8339 44.9351 21.6089 44.897 21.3902C44.1794 17.3333 42.2322 13.595 39.3191 10.6819C36.406 7.76862 32.6679 5.82119 28.611 5.10344C28.5028 5.08442 28.3918 5.08692 28.2844 5.11079C28.1771 5.13467 28.0755 5.17944 27.9854 5.24257C27.8954 5.3057 27.8188 5.38594 27.7597 5.47872C27.7007 5.57149 27.6605 5.67498 27.6415 5.78328C27.6225 5.89158 27.625 6.00256 27.6489 6.1099C27.6727 6.21723 27.7175 6.31881 27.7807 6.40884C27.8438 6.49887 27.924 6.57556 28.0168 6.63458C28.1096 6.69361 28.2131 6.7338 28.3213 6.7528Z" fill="black"/>
<path d="M28.2702 11.8658C30.6567 12.4563 32.8368 13.6871 34.5751 15.4256C36.3135 17.1642 37.5442 19.3443 38.1345 21.731C38.1574 21.8407 38.2022 21.9447 38.2662 22.0369C38.33 22.129 38.4118 22.2073 38.5067 22.2672C38.6015 22.3272 38.7073 22.3673 38.818 22.3856C38.9286 22.4038 39.0418 22.3996 39.1508 22.3732C39.2598 22.3468 39.3624 22.2989 39.4524 22.2321C39.5425 22.1653 39.6183 22.0812 39.6752 21.9846C39.7322 21.8879 39.7691 21.7809 39.7839 21.6698C39.7986 21.5586 39.7909 21.4455 39.7612 21.3375C39.0975 18.6519 37.7128 16.1987 35.7567 14.2426C33.8007 12.2866 31.3475 10.902 28.662 10.2382C28.5541 10.2098 28.4418 10.2032 28.3314 10.2188C28.2211 10.2344 28.1149 10.2719 28.0192 10.3291C27.9235 10.3862 27.8402 10.4618 27.7742 10.5517C27.7081 10.6414 27.6607 10.7435 27.6346 10.8518C27.6085 10.9602 27.6043 11.0727 27.6223 11.1827C27.6402 11.2927 27.68 11.398 27.7392 11.4925C27.7984 11.5869 27.8758 11.6685 27.967 11.7327C28.0582 11.7968 28.1612 11.842 28.2702 11.8658Z" fill="black"/>
<path d="M30.1404 23.2088C30.8028 23.2088 31.4503 23.0123 32.001 22.6444C32.5518 22.2764 32.981 21.7533 33.2345 21.1414C33.488 20.5294 33.5543 19.8561 33.425 19.2064C33.2958 18.5568 32.9768 17.9601 32.5085 17.4918C32.0401 17.0234 31.4434 16.7044 30.7938 16.5753C30.1441 16.446 29.4708 16.5123 28.8589 16.7658C28.247 17.0192 27.7238 17.4485 27.3559 17.9992C26.9879 18.55 26.7915 19.1975 26.7915 19.8598C26.7915 20.748 27.1443 21.5998 27.7724 22.2279C28.4004 22.8559 29.2522 23.2088 30.1404 23.2088ZM30.1404 18.1853C30.4717 18.1853 30.7953 18.2835 31.0707 18.4676C31.3461 18.6515 31.5607 18.9131 31.6875 19.219C31.8142 19.525 31.8473 19.8617 31.7828 20.1865C31.7181 20.5113 31.5586 20.8097 31.3245 21.0438C31.0903 21.278 30.7919 21.4375 30.4671 21.5021C30.1423 21.5667 29.8056 21.5335 29.4996 21.4069C29.1937 21.2801 28.9322 21.0654 28.7482 20.7901C28.5642 20.5147 28.466 20.191 28.466 19.8598C28.466 19.4157 28.6424 18.9898 28.9564 18.6758C29.2705 18.3617 29.6964 18.1853 30.1404 18.1853Z" fill="black"/>
</svg>
