<svg width="18" height="22" viewBox="0 0 18 22" fill="none" xmlns="http://www.w3.org/2000/svg">
<path d="M14 6C14 3.24297 11.757 1 9 1C6.24297 1 4 3.24297 4 6H0.25V17.875C0.25 19.6009 1.6491 21 3.375 21H14.625C16.3509 21 17.75 19.6009 17.75 17.875V6H14ZM9 2.875C10.7231 2.875 12.125 4.27688 12.125 6H5.875C5.875 4.27688 7.27688 2.875 9 2.875ZM15.875 17.875C15.875 18.5643 15.3143 19.125 14.625 19.125H3.375C2.68574 19.125 2.125 18.5643 2.125 17.875V7.875H4V9.4375C4 9.95527 4.41973 10.375 4.9375 10.375C5.45527 10.375 5.875 9.95527 5.875 9.4375V7.875H12.125V9.4375C12.125 9.95527 12.5447 10.375 13.0625 10.375C13.5803 10.375 14 9.95527 14 9.4375V7.875H15.875V17.875Z" fill="#484848" stroke="#484848" stroke-width="0.0390625"/>
</svg>
