<svg width="20" height="20" viewBox="0 0 20 20" fill="none" xmlns="http://www.w3.org/2000/svg">
<path d="M18.877 17.4848L14.609 13.2168C14.5281 13.1359 14.4227 13.0938 14.3102 13.0938H13.8461C14.9535 11.8105 15.625 10.1406 15.625 8.3125C15.625 4.27305 12.352 1 8.3125 1C4.27305 1 1 4.27305 1 8.3125C1 12.352 4.27305 15.625 8.3125 15.625C10.1406 15.625 11.8105 14.9535 13.0938 13.8461V14.3102C13.0938 14.4227 13.1395 14.5281 13.2168 14.609L17.4848 18.877C17.65 19.0422 17.9172 19.0422 18.0824 18.877L18.877 18.0824C19.0422 17.9172 19.0422 17.65 18.877 17.4848ZM8.3125 13.9375C5.20469 13.9375 2.6875 11.4203 2.6875 8.3125C2.6875 5.20469 5.20469 2.6875 8.3125 2.6875C11.4203 2.6875 13.9375 5.20469 13.9375 8.3125C13.9375 11.4203 11.4203 13.9375 8.3125 13.9375Z" fill="#484848" stroke="#484848" stroke-width="0.0351562"/>
</svg>
