<svg width="22" height="16" viewBox="0 0 22 16" fill="none" xmlns="http://www.w3.org/2000/svg">
<path d="M9.75 5.5C9.8875 5.5 10 5.3875 10 5.25V4.75C10 4.6125 9.8875 4.5 9.75 4.5H2.25C2.1125 4.5 2 4.6125 2 4.75V5.25C2 5.3875 2.1125 5.5 2.25 5.5H9.75ZM20.75 11.5H20V8.12187C20 7.59687 19.7875 7.08125 19.4125 6.70937L16.7906 4.0875C16.4219 3.7125 15.9062 3.5 15.3781 3.5H14V1.95625C14 1.15312 13.3063 0.5 12.4563 0.5H4.54375C3.69375 0.5 3 1.15312 3 1.95625V2.5H1.25C1.1125 2.5 1 2.6125 1 2.75V3.25C1 3.3875 1.1125 3.5 1.25 3.5H8.75C8.8875 3.5 9 3.3875 9 3.25V2.75C9 2.6125 8.8875 2.5 8.75 2.5H4V1.95625C4 1.70312 4.24375 1.5 4.54375 1.5H12.4563C12.7563 1.5 13 1.70312 13 1.95625V11.5H7.4875C7.03125 10.8969 6.3125 10.5 5.5 10.5C4.93438 10.5 4.41875 10.6937 4 11.0125V8.5H3V13C3 14.3813 4.11875 15.5 5.5 15.5C6.88125 15.5 8 14.3813 8 13C8 12.8281 7.98125 12.6625 7.95 12.5H14.05C14.0156 12.6625 14 12.8281 14 13C14 14.3813 15.1187 15.5 16.5 15.5C17.8813 15.5 19 14.3813 19 13C19 12.8281 18.9813 12.6625 18.95 12.5H20.75C20.8875 12.5 21 12.3875 21 12.25V11.75C21 11.6125 20.8875 11.5 20.75 11.5ZM5.5 14.5C4.67188 14.5 4 13.8281 4 13C4 12.1719 4.67188 11.5 5.5 11.5C6.32812 11.5 7 12.1719 7 13C7 13.8281 6.32812 14.5 5.5 14.5ZM14 4.5H15.3781C15.6406 4.5 15.9 4.60625 16.0844 4.79375L18.7062 7.41563C18.7312 7.44063 18.7406 7.475 18.7625 7.50313H14V4.5ZM16.5 14.5C15.6719 14.5 15 13.8281 15 13C15 12.1719 15.6719 11.5 16.5 11.5C17.3281 11.5 18 12.1719 18 13C18 13.8281 17.3281 14.5 16.5 14.5ZM19 11.5H18.4875C18.0312 10.8969 17.3125 10.5 16.5 10.5C15.6875 10.5 14.9688 10.8969 14.5125 11.5H14V8.5H19V11.5ZM9 7.25V6.75C9 6.6125 8.8875 6.5 8.75 6.5H1.25C1.1125 6.5 1 6.6125 1 6.75V7.25C1 7.3875 1.1125 7.5 1.25 7.5H8.75C8.8875 7.5 9 7.3875 9 7.25Z" fill="black" stroke="black" stroke-width="0.03125"/>
</svg>
