<svg width="18" height="22" viewBox="0 0 18 22" fill="none" xmlns="http://www.w3.org/2000/svg">
<path d="M12.5 12.875C11.3789 12.875 10.8398 13.5 9 13.5C7.16016 13.5 6.625 12.875 5.5 12.875C2.60156 12.875 0.25 15.2266 0.25 18.125V19.125C0.25 20.1602 1.08984 21 2.125 21H15.875C16.9102 21 17.75 20.1602 17.75 19.125V18.125C17.75 15.2266 15.3984 12.875 12.5 12.875ZM15.875 19.125H2.125V18.125C2.125 16.2656 3.64062 14.75 5.5 14.75C6.07031 14.75 6.99609 15.375 9 15.375C11.0195 15.375 11.9258 14.75 12.5 14.75C14.3594 14.75 15.875 16.2656 15.875 18.125V19.125ZM9 12.25C12.1055 12.25 14.625 9.73047 14.625 6.625C14.625 3.51953 12.1055 1 9 1C5.89453 1 3.375 3.51953 3.375 6.625C3.375 9.73047 5.89453 12.25 9 12.25ZM9 2.875C11.0664 2.875 12.75 4.55859 12.75 6.625C12.75 8.69141 11.0664 10.375 9 10.375C6.93359 10.375 5.25 8.69141 5.25 6.625C5.25 4.55859 6.93359 2.875 9 2.875Z" fill="#484848" stroke="#484848" stroke-width="0.0390625"/>
</svg>
