<svg width="22" height="13" viewBox="0 0 22 13" fill="none" xmlns="http://www.w3.org/2000/svg">
<path d="M20.7693 5.65383C18.8115 2.33154 15.1601 0.111084 11 0.111084C6.83821 0.111084 3.18766 2.3331 1.23078 5.65383C1.07969 5.91022 1 6.20239 1 6.49999C1 6.79759 1.07969 7.08976 1.23078 7.34615C3.18859 10.6684 6.83995 12.8889 11 12.8889C15.1618 12.8889 18.8124 10.6668 20.7693 7.34612C20.9203 7.08973 21 6.79757 21 6.49997C21 6.20238 20.9203 5.91021 20.7693 5.65383ZM11 11.2222C7.43904 11.2222 4.33019 9.32285 2.66668 6.49997C4.19991 3.89813 6.96102 2.08088 10.1723 1.81223C10.5124 2.1624 10.7222 2.6399 10.7222 3.16664C10.7222 4.24053 9.85168 5.11108 8.77779 5.11108C7.70391 5.11108 6.83335 4.24053 6.83335 3.16664L6.83338 3.16518C6.47898 3.82785 6.27779 4.58483 6.27779 5.38886C6.27779 7.99688 8.392 10.1111 11 10.1111C13.608 10.1111 15.7222 7.99688 15.7222 5.38886C15.7222 4.3114 15.3611 3.31841 14.7537 2.52376C16.6842 3.32768 18.292 4.73282 19.3334 6.49997C17.6699 9.32285 14.561 11.2222 11 11.2222Z" fill="black" stroke="black" stroke-width="0.0347222"/>
</svg>
