<svg width="14" height="19" viewBox="0 0 14 19" fill="none" xmlns="http://www.w3.org/2000/svg">
<path d="M5.90601 14.5H4.18726V1.375C4.18726 1.20924 4.12141 1.05027 4.0042 0.933058C3.88699 0.815848 3.72802 0.75 3.56226 0.75H2.93726C2.7715 0.75 2.61253 0.815848 2.49532 0.933058C2.37811 1.05027 2.31226 1.20924 2.31226 1.375V14.5H0.593509C0.501916 14.5 0.412315 14.5267 0.335777 14.5771C0.25924 14.6274 0.199119 14.699 0.162843 14.7831C0.126567 14.8672 0.115726 14.9601 0.131658 15.0503C0.147591 15.1405 0.1896 15.224 0.252494 15.2906L2.90874 18.1031C2.95255 18.1495 3.00536 18.1864 3.06393 18.2116C3.1225 18.2368 3.1856 18.2498 3.24937 18.2498C3.31314 18.2498 3.37624 18.2368 3.43481 18.2116C3.49338 18.1864 3.54618 18.1495 3.58999 18.1031L6.24624 15.2906C6.30909 15.2241 6.35109 15.1406 6.36704 15.0505C6.383 14.9604 6.37223 14.8675 6.33605 14.7835C6.29987 14.6994 6.23987 14.6277 6.16345 14.5774C6.08703 14.527 5.99754 14.5001 5.90601 14.5ZM13.7466 3.70938L11.0904 0.896875C11.0466 0.850534 10.9938 0.813621 10.9352 0.788392C10.8766 0.763164 10.8135 0.750152 10.7498 0.750152C10.686 0.750152 10.6229 0.763164 10.5643 0.788392C10.5057 0.813621 10.4529 0.850534 10.4091 0.896875L7.75288 3.70938C7.69001 3.77594 7.64801 3.85945 7.63207 3.94962C7.61612 4.03978 7.62693 4.13263 7.66316 4.21672C7.69938 4.30081 7.75944 4.37245 7.83592 4.42279C7.9124 4.47313 8.00195 4.49997 8.09351 4.5H9.81226V17.625C9.81226 17.7908 9.87811 17.9497 9.99532 18.0669C10.1125 18.1842 10.2715 18.25 10.4373 18.25H11.0623C11.228 18.25 11.387 18.1842 11.5042 18.0669C11.6214 17.9497 11.6873 17.7908 11.6873 17.625V4.5H13.406C13.4976 4.49997 13.5871 4.47313 13.6636 4.42279C13.7401 4.37245 13.8001 4.30081 13.8364 4.21672C13.8726 4.13263 13.8834 4.03978 13.8675 3.94962C13.8515 3.85945 13.8095 3.77594 13.7466 3.70938Z" fill="black"/>
</svg>
