<svg width="11" height="11" viewBox="0 0 11 11" fill="none" xmlns="http://www.w3.org/2000/svg">
<path d="M9.8125 4.9375H6.0625V1.1875C6.0625 1.08391 5.97859 1 5.875 1H5.125C5.02141 1 4.9375 1.08391 4.9375 1.1875V4.9375H1.1875C1.08391 4.9375 1 5.02141 1 5.125V5.875C1 5.97859 1.08391 6.0625 1.1875 6.0625H4.9375V9.8125C4.9375 9.91609 5.02141 10 5.125 10H5.875C5.97859 10 6.0625 9.91609 6.0625 9.8125V6.0625H9.8125C9.91609 6.0625 10 5.97859 10 5.875V5.125C10 5.02141 9.91609 4.9375 9.8125 4.9375Z" fill="black" stroke="black" stroke-width="0.0234375"/>
</svg>
